<svg width="24" height="23" viewBox="0 0 24 23" fill="none" xmlns="http://www.w3.org/2000/svg">
<g id="noun_concept_683351">
<path id="Shape" fill-rule="evenodd" clip-rule="evenodd" d="M10.0904 0.836163V2.99835C10.0904 3.45611 10.4615 3.82719 10.9192 3.82719C11.377 3.82719 11.7481 3.45611 11.7481 2.99835V0.836163C11.7481 0.378408 11.377 0.00732422 10.9192 0.00732422C10.4615 0.00732422 10.0904 0.378408 10.0904 0.836163ZM8.38227 20.4472V19.7986C8.38227 19.4523 8.66301 19.1715 9.00931 19.1715H12.7955C13.1312 19.188 13.3963 19.4625 13.401 19.7986V20.4472C13.4023 20.9547 13.029 21.3854 12.5265 21.4562L12.3703 22.0376C12.2846 22.3527 12.0024 22.5743 11.676 22.583H10.1072C9.77822 22.5886 9.4895 22.3648 9.41292 22.0448L9.25676 21.4634C8.75147 21.3923 8.37729 20.9575 8.38227 20.4472ZM3.95219 10.7846C3.94573 11.2397 3.57841 11.607 3.12335 11.6135H0.961163C0.503408 11.6135 0.132324 11.2424 0.132324 10.7846C0.132324 10.3269 0.503408 9.95579 0.961163 9.95579H3.12335C3.58111 9.95579 3.95219 10.3269 3.95219 10.7846ZM3.02725 17.831C3.02222 18.1691 3.22309 18.4764 3.53483 18.6074C3.84656 18.7384 4.20665 18.6669 4.44469 18.4268L5.96783 16.9036C6.13109 16.7465 6.22335 16.5296 6.22335 16.303C6.22335 16.0764 6.13109 15.8596 5.96783 15.7024C5.64111 15.3976 5.13418 15.3976 4.80746 15.7024L3.27711 17.2328C3.11433 17.3894 3.02165 17.6051 3.02005 17.831H3.02725ZM18.5566 4.32449L17.031 5.85484C16.8778 6.01365 16.6679 6.10523 16.4472 6.1095C16.2282 6.10102 16.0191 6.01601 15.8562 5.86926C15.6845 5.7063 15.5887 5.47896 15.592 5.24222C15.5898 5.0196 15.6762 4.80525 15.8322 4.64642L17.3554 3.12328C17.6879 2.79348 18.2241 2.79348 18.5566 3.12328C18.7198 3.28043 18.8121 3.49728 18.8121 3.72389C18.8121 3.9505 18.7198 4.16734 18.5566 4.32449ZM4.80505 5.85725C5.01963 6.06581 5.32918 6.14406 5.61709 6.06252C5.905 5.98097 6.12754 5.75202 6.20088 5.46191C6.27422 5.1718 6.18721 4.8646 5.97264 4.65603L4.44949 3.13289C4.23492 2.91831 3.92217 2.83451 3.62905 2.91305C3.33593 2.99159 3.10698 3.22054 3.02844 3.51366C2.9499 3.80678 3.0337 4.11953 3.24828 4.3341L4.80505 5.85725ZM10.2225 18.1889H9.33123C8.60579 18.1999 7.98527 17.6699 7.88257 16.9517C7.75399 16.1336 7.37748 15.3747 6.80388 14.7775C5.23145 13.1521 4.77902 10.7461 5.65367 8.66058C6.52833 6.5751 8.56174 5.21159 10.8231 5.19417H10.8664C13.145 5.17494 15.2123 6.52567 16.11 8.6201C17.0076 10.7145 16.5599 13.1431 14.9745 14.7799C14.3965 15.374 14.0192 16.1344 13.8959 16.9541C13.7792 17.6612 13.1711 18.1821 12.4544 18.1889H11.5631V13.2976L13.0382 11.8225C13.2867 11.5598 13.281 11.147 13.0253 10.8912C12.7695 10.6355 12.3567 10.6298 12.094 10.8783L10.8928 12.0795L9.6916 10.8783C9.42888 10.6298 9.01608 10.6355 8.76037 10.8912C8.50465 11.147 8.49892 11.5598 8.74744 11.8225L10.2225 13.2976V18.1889ZM19.0803 10.542L14.9361 19.479L14.8953 22.3043C14.893 22.4099 14.9533 22.5069 15.049 22.5517C15.1447 22.5964 15.2578 22.5804 15.3373 22.5109L17.4755 20.661L21.6221 11.7264L19.0803 10.542ZM22.8233 10.1432C23.0785 10.2586 23.3025 10.4332 23.4768 10.6525V10.6549C23.9241 11.2097 24.019 11.9699 23.7218 12.6177L21.2233 18.0328C20.9566 18.607 20.0701 18.2226 20.3272 17.646V17.6316L22.8233 12.2357C22.9149 12.0478 22.9403 11.8344 22.8954 11.6303C22.8376 11.3638 22.6604 11.1388 22.4149 11.0201L22.0569 10.8567L19.5151 9.67231L20.01 8.60803L20.3632 7.85367C20.5946 7.35797 21.1835 7.14303 21.6797 7.37318L22.4245 7.71913C22.6632 7.83024 22.8479 8.03165 22.938 8.27903C23.0282 8.52641 23.0163 8.79946 22.905 9.03806L22.5518 9.79483L22.4677 9.97742L22.8233 10.1432Z" fill="#617083"/>
</g>
</svg>
