<svg width="21" height="21" viewBox="0 0 21 21" fill="none" xmlns="http://www.w3.org/2000/svg">
<g id="noun_support_223873">
<path id="Shape" fill-rule="evenodd" clip-rule="evenodd" d="M8.34292 17.4065V18.6077C8.34292 19.0663 8.69236 19.4376 9.17284 19.4594H10.4396C10.8982 19.4594 11.2695 19.0882 11.2695 18.6295V17.4283C11.9247 17.2973 12.5362 17.1007 13.1259 16.8168L11.2695 14.9604C9.5878 15.419 7.7314 15.0914 6.3118 13.8902C4.0186 11.9465 3.73468 8.53944 5.6566 6.24624C7.60036 3.95304 11.0074 3.66912 13.3006 5.59104C15.0478 7.03248 15.6375 9.34752 14.9823 11.3786L16.795 13.1914C17.1226 12.558 17.341 11.9028 17.472 11.1821H18.6951C19.1537 11.1821 19.525 10.8108 19.525 10.3522V9.08544C19.525 8.6268 19.1537 8.25552 18.6951 8.25552H17.472C17.2536 7.18536 16.8387 6.20256 16.249 5.32896L17.1226 4.45536C17.4502 4.12776 17.4502 3.62544 17.1226 3.29784L16.2272 2.4024C15.8996 2.0748 15.3972 2.0748 15.0696 2.4024L14.196 3.276C13.3224 2.68632 12.3396 2.27136 11.2695 2.0748V0.82992C11.2695 0.37128 10.8982 0 10.4396 0H9.17284C8.7142 0 8.34292 0.37128 8.34292 0.82992V2.0748C7.27276 2.27136 6.28996 2.68632 5.41636 3.276L4.54276 2.4024C4.21516 2.0748 3.71284 2.0748 3.38524 2.4024L2.4898 3.29784C2.1622 3.62544 2.1622 4.12776 2.4898 4.45536L3.3634 5.32896C2.77372 6.20256 2.33692 7.18536 2.14036 8.25552H0.917322C0.458682 8.25552 0.0874023 8.6268 0.0874023 9.08544V10.3522C0.0874023 10.8108 0.458682 11.1821 0.917322 11.1821H2.14036C2.33692 12.2522 2.75188 13.2569 3.34156 14.1305L2.4898 14.9822C2.1622 15.3098 2.1622 15.8122 2.4898 16.1398L3.38524 17.0352C3.71284 17.3628 4.21516 17.3628 4.54276 17.0352L5.39452 16.1834C6.26812 16.7731 7.27276 17.2099 8.34292 17.4065ZM11.4224 13.4316L18.5204 20.5296C19.0664 21.0756 19.94 21.0756 20.486 20.5078C21.032 19.9618 21.032 19.11 20.486 18.564L13.4753 11.5534C13.0822 11.1602 12.9075 10.6142 12.973 10.0682C13.0822 9.15096 12.7764 8.19 12.0776 7.49112C11.2258 6.63936 9.98092 6.37728 8.88892 6.72672C8.8234 6.74856 8.80156 6.85776 8.84524 6.90144L10.1993 8.25552C10.5924 8.64864 10.5706 9.282 10.1993 9.65328L9.60964 10.243C9.21652 10.6142 8.58316 10.6142 8.21188 10.243L6.92332 8.9544C6.8578 8.88888 6.77044 8.93256 6.7486 8.99808C6.48652 10.0464 6.77044 11.2039 7.57852 12.012C8.25556 12.689 9.151 12.9948 10.0246 12.9293C10.5488 12.8856 11.0511 13.0603 11.4224 13.4316Z" fill="#617083"/>
</g>
</svg>
