<svg width="18" height="21" viewBox="0 0 18 21" fill="none" xmlns="http://www.w3.org/2000/svg">
<g id="noun_data filtering_1228693">
<path id="Shape" fill-rule="evenodd" clip-rule="evenodd" d="M10.147 4.01538H13.0154L9 8.03077L4.98462 4.01538H7.85243V0H10.147V4.01538ZM15.2532 5.65865C15.0184 5.74588 14.1292 6.09314 13.1519 6.66388C13.9993 6.91892 14.5163 7.25206 14.5163 7.6176C14.5163 8.41929 12.0467 9.06923 9 9.06923C5.95357 9.06923 3.48397 8.41929 3.48397 7.6176C3.48397 7.25206 4.00126 6.9192 4.84809 6.66415C3.87083 6.09314 2.98135 5.74615 2.7468 5.65865C1.05397 6.21277 0 6.98954 0 7.84994V10.7889C1.2348 12.0318 4.79631 12.9306 9 12.9306C13.204 12.9306 16.7655 12.0318 18 10.7889V7.84994C18 6.98954 16.9458 6.21277 15.2532 5.65865ZM1.66154 15.7904V13.3477C3.37265 14.048 6.04883 14.4944 9 14.4944C11.9517 14.4944 14.6274 14.0483 16.3385 13.3477V15.7904C14.6274 16.4908 11.9517 16.9338 9 16.9338C6.04883 16.9338 3.37265 16.4905 1.66154 15.7904ZM4.05 19.0808V17.8615C4.05 17.8615 5.05551 18.5882 9 18.5882C12.906 18.5882 13.95 17.8615 13.95 17.8615V19.0808C13.95 20.0135 11.7335 20.7692 9 20.7692C6.26594 20.7692 4.05 20.0135 4.05 19.0808Z" fill="#617083"/>
</g>
</svg>
