<svg width="23" height="22" viewBox="0 0 23 22" fill="none" xmlns="http://www.w3.org/2000/svg">
<g id="noun_Settings_1231676">
<path id="Shape" fill-rule="evenodd" clip-rule="evenodd" d="M21.7664 13.0734C21.8864 13.7864 21.8861 14.5021 21.7755 15.1959C22.6916 16.017 23.1375 16.7677 22.9203 17.2983C22.7031 17.8295 21.8585 18.0515 20.63 17.9948C20.2225 18.5667 19.7201 19.0772 19.135 19.5018C19.2022 20.7299 18.9867 21.5759 18.4577 21.7976C17.9285 22.0196 17.1742 21.5797 16.3457 20.6706C15.6327 20.7901 14.9168 20.7903 14.2229 20.6795C13.4021 21.5953 12.6512 22.0412 12.1203 21.824C11.5894 21.6071 11.3672 20.7623 11.4243 19.5337C10.8521 19.1259 10.3417 18.6239 9.91759 18.0387C8.68903 18.1059 7.84279 17.8904 7.62103 17.3615C7.39927 16.8323 7.83919 16.0779 8.74855 15.2492C8.62855 14.5362 8.62879 13.8205 8.73943 13.1267C7.82335 12.3054 7.37743 11.5547 7.59487 11.024C7.81207 10.4931 8.65663 10.2711 9.88519 10.3278C10.2927 9.75561 10.7948 9.24537 11.3801 8.82081C11.3127 7.59273 11.5282 6.74649 12.0572 6.52473C12.5864 6.30321 13.3409 6.74289 14.1694 7.65201C14.8825 7.53249 15.5981 7.53225 16.292 7.64313C17.1128 6.72729 17.8637 6.28137 18.3946 6.49857C18.9255 6.71553 19.148 7.56009 19.0906 8.78889C19.6628 9.19665 20.1733 9.69849 20.5976 10.2839C21.8259 10.2167 22.6721 10.4319 22.8939 10.9611C23.1157 11.4903 22.6757 12.2447 21.7664 13.0734ZM12.1585 15.4604C12.8756 17.1719 14.8443 17.9778 16.556 17.2607C18.2677 16.5433 19.0738 14.5746 18.3565 12.8627C17.6391 11.1512 15.6704 10.3453 13.9589 11.0624C12.247 11.7795 11.4411 13.7485 12.1585 15.4604Z" fill="#617083"/>
<path id="Path" d="M15.4242 12.1335L15.4544 12.1726C15.5877 12.345 15.6573 12.5591 15.6494 12.7784V13.7295C15.6494 14.2518 15.2204 14.65 14.7226 14.65H2.26691H2.25556L2.24422 14.6496C1.75863 14.6326 1.3499 14.2385 1.35 13.7295C1.35 13.7294 1.35 13.7293 1.35 13.7293V12.7633V12.7497L1.35014 12.7497C1.35539 12.4986 1.46339 12.2636 1.64437 12.0958C2.89808 10.8966 4.4517 10.0447 6.14643 9.62346C6.16577 9.57246 6.1866 9.50636 6.20707 9.42703C6.22365 9.36272 6.23798 9.29777 6.25007 9.23684C5.80164 8.71904 5.49576 8.09594 5.36319 7.4274C5.21266 7.31085 5.10782 7.16939 5.04602 7.0698C4.90317 6.83962 4.80095 6.54056 4.80003 6.25507C4.80003 6.25378 4.80003 6.25249 4.80003 6.25121H5.45003C5.44828 6.11133 5.52169 5.98418 5.63788 5.912L15.4242 12.1335ZM15.4242 12.1335L15.3884 12.0994C14.1463 10.9164 12.6121 10.0715 10.9377 9.64561C10.9372 9.64492 10.9367 9.64422 10.9362 9.64349C10.9057 9.59952 10.8695 9.52346 10.8361 9.41733C10.8219 9.37212 10.8098 9.32657 10.7995 9.28285C11.252 8.75728 11.5586 8.12483 11.6882 7.44715C11.8211 7.34145 11.9166 7.21244 11.9781 7.10254C12.1062 6.87384 12.165 6.60973 12.1694 6.37651C12.1851 6.13953 12.1278 5.9097 12.0126 5.71295C12.0639 5.50102 12.0902 5.28344 12.0906 5.06449C12.1229 4.10608 11.764 3.17695 11.0973 2.48131C10.4281 1.78307 9.50459 1.37766 8.53285 1.35026L8.51862 1.34986L8.50439 1.35008C7.52857 1.3653 6.59656 1.76204 5.91779 2.45641C5.23851 3.15131 4.86985 4.08654 4.89918 5.05352L4.89944 5.06201L4.89992 5.07049C4.91098 5.26622 4.94075 5.46003 4.98859 5.64942L15.4242 12.1335ZM10.9518 9.66356C10.9527 9.66432 10.9531 9.66476 10.9531 9.66478L10.9518 9.66356Z" fill="#617083" stroke="#EBECEF" stroke-width="1.3"/>
</g>
</svg>
