<svg width="24" height="16" viewBox="0 0 24 16" fill="none" xmlns="http://www.w3.org/2000/svg">
<g id="noun_users_1555407">
<g id="Group">
<path id="Combined Shape" fill-rule="evenodd" clip-rule="evenodd" d="M19.8715 13.2963C18.427 11.8887 16.6369 10.8868 14.6818 10.3915C14.0376 10.2092 13.9282 8.89662 13.9282 8.89662C14.6268 8.19966 15.0572 7.27867 15.1436 6.29569C15.4839 6.29569 15.6662 5.83385 15.6662 5.46923C15.6884 5.22839 15.5763 4.99488 15.3746 4.86154C15.504 4.53679 15.5701 4.19023 15.569 3.84062C15.6051 2.85323 15.2454 1.8923 14.57 1.1712C13.8945 0.450101 12.9591 0.0284978 11.9715 0C10.9797 0.0158255 10.0356 0.428486 9.35036 1.14569C8.66513 1.8629 8.29593 2.82481 8.32532 3.81631C8.3452 4.17617 8.42745 4.52984 8.5684 4.86154C8.35068 4.92216 8.20102 5.12171 8.20379 5.34769C8.20379 5.71231 8.48332 6.27138 8.82363 6.27138C8.91638 7.24204 9.34644 8.14947 10.039 8.83585C10.039 8.83585 9.88102 10.2335 9.46778 10.3308C7.43151 10.8068 5.56494 11.8326 4.07148 13.2963C4.00348 13.3591 3.96398 13.4469 3.96209 13.5394V14.7548C3.96198 14.9381 4.10706 15.0885 4.29025 15.0951H19.6041C19.792 15.0951 19.9444 14.9427 19.9444 14.7548V13.5394C19.95 13.4522 19.9241 13.366 19.8715 13.2963ZM8.05794 7.03708C7.66966 6.83888 7.2625 6.68009 6.84255 6.56308C6.46579 6.45369 6.39286 5.42062 6.39286 5.42062C6.81009 5.00933 7.06473 4.46119 7.10994 3.87708C7.31655 3.87708 7.47455 3.53677 7.47455 3.33015C7.47219 3.18737 7.38668 3.0591 7.25579 3.002C7.31061 2.81674 7.33524 2.62386 7.32871 2.43077C7.35836 1.83785 7.14845 1.2579 6.74616 0.821332C6.34388 0.38476 5.78299 0.128215 5.18963 0.109385C4.59413 0.125011 4.03011 0.380162 3.62521 0.817095C3.2203 1.25403 3.00874 1.83581 3.0384 2.43077C3.03966 2.65107 3.08084 2.86931 3.15994 3.07492C3.0303 3.11274 2.94117 3.23157 2.94117 3.36662C2.94117 3.58538 3.09917 3.91354 3.30579 3.91354C3.37804 4.48267 3.64927 5.00789 4.07148 5.39631C4.07148 5.39631 3.97425 6.49015 3.73117 6.53877C2.48652 6.80663 1.3415 7.41703 0.425324 8.30108C0.406403 8.34785 0.406403 8.40015 0.425324 8.44692V9.164C0.425219 9.21775 0.447366 9.26915 0.486508 9.30599C0.525649 9.34283 0.578293 9.36182 0.631939 9.35846H9.01809V9.15185C8.53712 8.53168 8.20826 7.80737 8.05794 7.03708ZM20.3576 6.56308C21.5264 6.85776 22.5959 7.45754 23.4569 8.30108C23.4938 8.33599 23.5156 8.38398 23.5176 8.43477V9.15185C23.5268 9.21447 23.5049 9.27764 23.459 9.32117C23.413 9.36471 23.3488 9.38315 23.2867 9.37062H14.8884C14.865 9.31096 14.8447 9.2501 14.8276 9.18831C15.3327 8.56474 15.6864 7.83254 15.8607 7.04923C16.2899 6.83224 16.7426 6.66505 17.2098 6.55092C17.4529 6.50231 17.5501 5.40846 17.5501 5.40846C17.14 4.99844 16.8899 4.45529 16.8452 3.87708C16.6507 3.87708 16.4806 3.54892 16.4806 3.33015C16.4806 3.19511 16.5697 3.07627 16.6993 3.03846C16.6244 2.83208 16.5873 2.61386 16.5899 2.39431C16.5293 1.58937 16.9244 0.818241 17.6131 0.397243C18.3019 -0.0237547 19.1683 -0.0237547 19.8571 0.397243C20.5458 0.818241 20.9409 1.58937 20.8802 2.39431C20.882 2.60192 20.8449 2.80803 20.7709 3.002C20.9039 3.05653 20.9905 3.18639 20.9896 3.33015C20.9896 3.53677 20.8316 3.87708 20.625 3.87708C20.5746 4.45981 20.3207 5.00622 19.9079 5.42062C19.9079 5.42062 19.9809 6.45369 20.3576 6.56308Z" fill="#617083"/>
</g>
</g>
</svg>
