<svg width="20" height="19" viewBox="0 0 20 19" fill="none" xmlns="http://www.w3.org/2000/svg">
<g id="noun_report_1526358">
<g id="Group">
<path id="Combined Shape" fill-rule="evenodd" clip-rule="evenodd" d="M19.1358 0H5.3429C4.91472 0.0136031 4.57079 0.357537 4.55718 0.785714V6.41667H0.864328C0.436151 6.43027 0.0922164 6.7742 0.0786133 7.20238V15.3214C0.0929902 16.9891 1.44899 18.3334 3.11671 18.3333H16.3334C17.285 18.3333 18.1976 17.9553 18.8705 17.2824C19.5434 16.6095 19.9215 15.6969 19.9215 14.7452V0.785714C19.9079 0.357537 19.5639 0.0136031 19.1358 0ZM18.35 14.7452C18.35 15.859 17.4471 16.7619 16.3334 16.7619H5.76195C6.00259 16.3199 6.12865 15.8247 6.12861 15.3214V1.57143H18.35V14.7452ZM13.881 4.37381H8.25004V5.94524H13.881V4.37381ZM8.25004 8.01429H15.7834V9.58571H8.25004V8.01429ZM15.7834 11.6286H8.25004V13.2H15.7834V11.6286Z" fill="#617083"/>
</g>
</g>
</svg>
